<svg width="70" height="64" viewBox="0 0 70 64" fill="none" xmlns="http://www.w3.org/2000/svg">
<g clip-path="url(#clip0_8256_1282)">
<path d="M0.0742188 45.8637L22.5286 37.3274L44.9828 45.8637V63.9533H0.0742188V45.8637Z" fill="#FF2626"/>
<path d="M13.6293 26.5251C13.1398 28.1829 12.427 29.3518 11.4907 30.0319C10.5757 30.712 9.25639 31.0521 7.5328 31.0521C5.23466 31.0309 3.40466 30.1807 2.04279 28.5017C0.68093 26.8225 0 24.3358 0 21.0414V12.4336C0 8.18278 0.957559 5.04783 2.87267 3.02869C4.80907 1.00956 7.75622 0 11.7141 0C15.2677 0 17.9808 0.81828 19.8534 2.45484C21.726 4.0914 22.6623 6.47184 22.6623 9.59618V12.0191H12.8632V9.69183C12.8632 8.39533 12.3419 7.74708 11.2992 7.74708C10.8311 7.74708 10.4587 7.92774 10.182 8.28906C9.90541 8.62912 9.7671 9.09672 9.7671 9.69183V21.5515C9.7671 22.8692 10.3203 23.5281 11.4269 23.5281C11.9376 23.5281 12.3419 23.3475 12.6398 22.9862C12.959 22.6249 13.1185 22.136 13.1185 21.5196V19.9575H11.6184V14.0276H22.6623V30.5739H14.8102L14.108 26.5251H13.6293Z" fill="white"/>
<path d="M35.1173 22.5079H44.2141V30.5738H25.4141V0.446289H44.0546V8.51218H35.1173V11.5728H43.5438V19.1286H35.1173V22.5079Z" fill="white"/>
<path d="M60.9681 12.7524L60.585 8.41654V0.446289H70.0011V30.5738H60.4893L56.2123 17.0562H55.7973L56.2123 21.2328V30.5738H46.8281V0.446289H56.6591L60.5531 12.7524H60.9681Z" fill="white"/>
<path d="M60.2955 33.6858H69.9987V63.8134H60.2955V52.5913L58.7475 51.8675L57.1994 52.5913V63.8453H47.4961V33.6858H57.1994V44.5572H60.2955V33.6858Z" fill="white"/>
</g>
<defs>
<clipPath id="clip0_8256_1282">
<rect width="70" height="64" fill="white"/>
</clipPath>
</defs>
</svg>
